%FSLAX45Y45*%
G04 Gerber Fmt 4.5, Leading zero omitted, Abs format (unit mm)*
G04 Created by KiCad (PCBNEW (2014-08-05 BZR 5054)-product) date 06/11/2014 16:12:25*
%MOMM*%
G01*
G04 APERTURE LIST*
%ADD10C,0.127000*%
%ADD11C,0.100000*%
%ADD12C,0.200000*%
%ADD13C,0.300000*%
G04 APERTURE END LIST*
D10*
D11*
X14414500Y-9588500D02*
X14414500Y-10858500D01*
X16954500Y-9588500D02*
X14414500Y-9588500D01*
X16954500Y-10858500D02*
X16954500Y-9588500D01*
X14414500Y-10858500D02*
X16954500Y-10858500D01*
D12*
X14778990Y-10600690D02*
X14812010Y-10633710D01*
X14812010Y-10600690D02*
X14778990Y-10633710D01*
X14791690Y-10511790D02*
X14824710Y-10544810D01*
X14824710Y-10511790D02*
X14791690Y-10544810D01*
X14893290Y-9851390D02*
X14926310Y-9884410D01*
X14926310Y-9851390D02*
X14893290Y-9884410D01*
X15083790Y-10499090D02*
X15116810Y-10532110D01*
X15116810Y-10499090D02*
X15083790Y-10532110D01*
X15083790Y-10600690D02*
X15116810Y-10633710D01*
X15116810Y-10600690D02*
X15083790Y-10633710D01*
X15096490Y-9648190D02*
X15129510Y-9681210D01*
X15129510Y-9648190D02*
X15096490Y-9681210D01*
X15274290Y-9952990D02*
X15307310Y-9986010D01*
X15307310Y-9952990D02*
X15274290Y-9986010D01*
X15540990Y-9838690D02*
X15574010Y-9871710D01*
X15574010Y-9838690D02*
X15540990Y-9871710D01*
X15947390Y-10384790D02*
X15980410Y-10417810D01*
X15980410Y-10384790D02*
X15947390Y-10417810D01*
X16023590Y-10232390D02*
X16056610Y-10265410D01*
X16056610Y-10232390D02*
X16023590Y-10265410D01*
X16048990Y-10575290D02*
X16082010Y-10608310D01*
X16082010Y-10575290D02*
X16048990Y-10608310D01*
X16074390Y-10130790D02*
X16107410Y-10163810D01*
X16107410Y-10130790D02*
X16074390Y-10163810D01*
X16150590Y-10562590D02*
X16183610Y-10595610D01*
X16183610Y-10562590D02*
X16150590Y-10595610D01*
X16201390Y-10359390D02*
X16234410Y-10392410D01*
X16234410Y-10359390D02*
X16201390Y-10392410D01*
X16442690Y-9838690D02*
X16475710Y-9871710D01*
X16475710Y-9838690D02*
X16442690Y-9871710D01*
X16823690Y-9660890D02*
X16856710Y-9693910D01*
X16856710Y-9660890D02*
X16823690Y-9693910D01*
X14541500Y-10210800D02*
G75*
G03X14541500Y-10210800I-25400J0D01*
G74*
G01*
X15163800Y-10375900D02*
G75*
G03X15163800Y-10375900I-25400J0D01*
G74*
G01*
X15303500Y-10096500D02*
G75*
G03X15303500Y-10096500I-25400J0D01*
G74*
G01*
X16560800Y-10541000D02*
G75*
G03X16560800Y-10541000I-25400J0D01*
G74*
G01*
X15913100Y-9692640D02*
X15913100Y-9763760D01*
X15877540Y-9728200D02*
X15948660Y-9728200D01*
X15913100Y-9819640D02*
X15913100Y-9890760D01*
X15877540Y-9855200D02*
X15948660Y-9855200D01*
X16040100Y-9692640D02*
X16040100Y-9763760D01*
X16004540Y-9728200D02*
X16075660Y-9728200D01*
X16040100Y-9819640D02*
X16040100Y-9890760D01*
X16004540Y-9855200D02*
X16075660Y-9855200D01*
X16167100Y-9692640D02*
X16167100Y-9763760D01*
X16131540Y-9728200D02*
X16202660Y-9728200D01*
X16167100Y-9819640D02*
X16167100Y-9890760D01*
X16131540Y-9855200D02*
X16202660Y-9855200D01*
D13*
X14680928Y-11329214D02*
X14680928Y-11029214D01*
X14752357Y-11029214D01*
X14795214Y-11043500D01*
X14823786Y-11072072D01*
X14838071Y-11100643D01*
X14852357Y-11157786D01*
X14852357Y-11200643D01*
X14838071Y-11257786D01*
X14823786Y-11286357D01*
X14795214Y-11314929D01*
X14752357Y-11329214D01*
X14680928Y-11329214D01*
X14980928Y-11329214D02*
X14980928Y-11129214D01*
X14980928Y-11186357D02*
X14995214Y-11157786D01*
X15009500Y-11143500D01*
X15038071Y-11129214D01*
X15066643Y-11129214D01*
X15166643Y-11329214D02*
X15166643Y-11129214D01*
X15166643Y-11029214D02*
X15152357Y-11043500D01*
X15166643Y-11057786D01*
X15180928Y-11043500D01*
X15166643Y-11029214D01*
X15166643Y-11057786D01*
X15352357Y-11329214D02*
X15323786Y-11314929D01*
X15309500Y-11286357D01*
X15309500Y-11029214D01*
X15509500Y-11329214D02*
X15480928Y-11314929D01*
X15466643Y-11286357D01*
X15466643Y-11029214D01*
X15852357Y-11329214D02*
X15852357Y-11029214D01*
X15952357Y-11243500D01*
X16052357Y-11029214D01*
X16052357Y-11329214D01*
X16323786Y-11329214D02*
X16323786Y-11172072D01*
X16309500Y-11143500D01*
X16280928Y-11129214D01*
X16223786Y-11129214D01*
X16195214Y-11143500D01*
X16323786Y-11314929D02*
X16295214Y-11329214D01*
X16223786Y-11329214D01*
X16195214Y-11314929D01*
X16180928Y-11286357D01*
X16180928Y-11257786D01*
X16195214Y-11229214D01*
X16223786Y-11214929D01*
X16295214Y-11214929D01*
X16323786Y-11200643D01*
X16466643Y-11129214D02*
X16466643Y-11429214D01*
X16466643Y-11143500D02*
X16495214Y-11129214D01*
X16552357Y-11129214D01*
X16580928Y-11143500D01*
X16595214Y-11157786D01*
X16609500Y-11186357D01*
X16609500Y-11272071D01*
X16595214Y-11300643D01*
X16580928Y-11314929D01*
X16552357Y-11329214D01*
X16495214Y-11329214D01*
X16466643Y-11314929D01*
X16738071Y-11300643D02*
X16752357Y-11314929D01*
X16738071Y-11329214D01*
X16723786Y-11314929D01*
X16738071Y-11300643D01*
X16738071Y-11329214D01*
X16738071Y-11143500D02*
X16752357Y-11157786D01*
X16738071Y-11172072D01*
X16723786Y-11157786D01*
X16738071Y-11143500D01*
X16738071Y-11172072D01*
X14376480Y-11806990D02*
X14409500Y-11840010D01*
X14409500Y-11806990D02*
X14376480Y-11840010D01*
X14738071Y-11659214D02*
X14766643Y-11659214D01*
X14795214Y-11673500D01*
X14809500Y-11687786D01*
X14823786Y-11716357D01*
X14838071Y-11773500D01*
X14838071Y-11844929D01*
X14823786Y-11902071D01*
X14809500Y-11930643D01*
X14795214Y-11944929D01*
X14766643Y-11959214D01*
X14738071Y-11959214D01*
X14709500Y-11944929D01*
X14695214Y-11930643D01*
X14680928Y-11902071D01*
X14666643Y-11844929D01*
X14666643Y-11773500D01*
X14680928Y-11716357D01*
X14695214Y-11687786D01*
X14709500Y-11673500D01*
X14738071Y-11659214D01*
X14966643Y-11930643D02*
X14980928Y-11944929D01*
X14966643Y-11959214D01*
X14952357Y-11944929D01*
X14966643Y-11930643D01*
X14966643Y-11959214D01*
X15080928Y-11659214D02*
X15266643Y-11659214D01*
X15166643Y-11773500D01*
X15209500Y-11773500D01*
X15238071Y-11787786D01*
X15252357Y-11802071D01*
X15266643Y-11830643D01*
X15266643Y-11902071D01*
X15252357Y-11930643D01*
X15238071Y-11944929D01*
X15209500Y-11959214D01*
X15123786Y-11959214D01*
X15095214Y-11944929D01*
X15080928Y-11930643D01*
X15366643Y-11659214D02*
X15552357Y-11659214D01*
X15452357Y-11773500D01*
X15495214Y-11773500D01*
X15523786Y-11787786D01*
X15538071Y-11802071D01*
X15552357Y-11830643D01*
X15552357Y-11902071D01*
X15538071Y-11930643D01*
X15523786Y-11944929D01*
X15495214Y-11959214D01*
X15409500Y-11959214D01*
X15380928Y-11944929D01*
X15366643Y-11930643D01*
X15680928Y-11959214D02*
X15680928Y-11759214D01*
X15680928Y-11787786D02*
X15695214Y-11773500D01*
X15723786Y-11759214D01*
X15766643Y-11759214D01*
X15795214Y-11773500D01*
X15809500Y-11802071D01*
X15809500Y-11959214D01*
X15809500Y-11802071D02*
X15823786Y-11773500D01*
X15852357Y-11759214D01*
X15895214Y-11759214D01*
X15923786Y-11773500D01*
X15938071Y-11802071D01*
X15938071Y-11959214D01*
X16080928Y-11959214D02*
X16080928Y-11759214D01*
X16080928Y-11787786D02*
X16095214Y-11773500D01*
X16123786Y-11759214D01*
X16166643Y-11759214D01*
X16195214Y-11773500D01*
X16209500Y-11802071D01*
X16209500Y-11959214D01*
X16209500Y-11802071D02*
X16223786Y-11773500D01*
X16252357Y-11759214D01*
X16295214Y-11759214D01*
X16323786Y-11773500D01*
X16338071Y-11802071D01*
X16338071Y-11959214D01*
X16923786Y-11644929D02*
X16666643Y-12030643D01*
X17309500Y-11659214D02*
X17338071Y-11659214D01*
X17366643Y-11673500D01*
X17380928Y-11687786D01*
X17395214Y-11716357D01*
X17409500Y-11773500D01*
X17409500Y-11844929D01*
X17395214Y-11902071D01*
X17380928Y-11930643D01*
X17366643Y-11944929D01*
X17338071Y-11959214D01*
X17309500Y-11959214D01*
X17280928Y-11944929D01*
X17266643Y-11930643D01*
X17252357Y-11902071D01*
X17238071Y-11844929D01*
X17238071Y-11773500D01*
X17252357Y-11716357D01*
X17266643Y-11687786D01*
X17280928Y-11673500D01*
X17309500Y-11659214D01*
X17538071Y-11930643D02*
X17552357Y-11944929D01*
X17538071Y-11959214D01*
X17523786Y-11944929D01*
X17538071Y-11930643D01*
X17538071Y-11959214D01*
X17738071Y-11659214D02*
X17766643Y-11659214D01*
X17795214Y-11673500D01*
X17809500Y-11687786D01*
X17823786Y-11716357D01*
X17838071Y-11773500D01*
X17838071Y-11844929D01*
X17823786Y-11902071D01*
X17809500Y-11930643D01*
X17795214Y-11944929D01*
X17766643Y-11959214D01*
X17738071Y-11959214D01*
X17709500Y-11944929D01*
X17695214Y-11930643D01*
X17680928Y-11902071D01*
X17666643Y-11844929D01*
X17666643Y-11773500D01*
X17680928Y-11716357D01*
X17695214Y-11687786D01*
X17709500Y-11673500D01*
X17738071Y-11659214D01*
X18123786Y-11959214D02*
X17952357Y-11959214D01*
X18038071Y-11959214D02*
X18038071Y-11659214D01*
X18009500Y-11702071D01*
X17980928Y-11730643D01*
X17952357Y-11744929D01*
X18223786Y-11659214D02*
X18409500Y-11659214D01*
X18309500Y-11773500D01*
X18352357Y-11773500D01*
X18380928Y-11787786D01*
X18395214Y-11802071D01*
X18409500Y-11830643D01*
X18409500Y-11902071D01*
X18395214Y-11930643D01*
X18380928Y-11944929D01*
X18352357Y-11959214D01*
X18266643Y-11959214D01*
X18238071Y-11944929D01*
X18223786Y-11930643D01*
X18523786Y-11659214D02*
X18523786Y-11716357D01*
X18638071Y-11659214D02*
X18638071Y-11716357D01*
X19080928Y-12073500D02*
X19066643Y-12059214D01*
X19038071Y-12016357D01*
X19023786Y-11987786D01*
X19009500Y-11944929D01*
X18995214Y-11873500D01*
X18995214Y-11816357D01*
X19009500Y-11744929D01*
X19023786Y-11702071D01*
X19038071Y-11673500D01*
X19066643Y-11630643D01*
X19080928Y-11616357D01*
X19352357Y-11959214D02*
X19180928Y-11959214D01*
X19266643Y-11959214D02*
X19266643Y-11659214D01*
X19238071Y-11702071D01*
X19209500Y-11730643D01*
X19180928Y-11744929D01*
X19609500Y-11659214D02*
X19552357Y-11659214D01*
X19523786Y-11673500D01*
X19509500Y-11687786D01*
X19480928Y-11730643D01*
X19466643Y-11787786D01*
X19466643Y-11902071D01*
X19480928Y-11930643D01*
X19495214Y-11944929D01*
X19523786Y-11959214D01*
X19580928Y-11959214D01*
X19609500Y-11944929D01*
X19623786Y-11930643D01*
X19638071Y-11902071D01*
X19638071Y-11830643D01*
X19623786Y-11802071D01*
X19609500Y-11787786D01*
X19580928Y-11773500D01*
X19523786Y-11773500D01*
X19495214Y-11787786D01*
X19480928Y-11802071D01*
X19466643Y-11830643D01*
X19995214Y-11959214D02*
X19995214Y-11659214D01*
X20123786Y-11959214D02*
X20123786Y-11802071D01*
X20109500Y-11773500D01*
X20080928Y-11759214D01*
X20038071Y-11759214D01*
X20009500Y-11773500D01*
X19995214Y-11787786D01*
X20309500Y-11959214D02*
X20280928Y-11944929D01*
X20266643Y-11930643D01*
X20252357Y-11902071D01*
X20252357Y-11816357D01*
X20266643Y-11787786D01*
X20280928Y-11773500D01*
X20309500Y-11759214D01*
X20352357Y-11759214D01*
X20380928Y-11773500D01*
X20395214Y-11787786D01*
X20409500Y-11816357D01*
X20409500Y-11902071D01*
X20395214Y-11930643D01*
X20380928Y-11944929D01*
X20352357Y-11959214D01*
X20309500Y-11959214D01*
X20580928Y-11959214D02*
X20552357Y-11944929D01*
X20538071Y-11916357D01*
X20538071Y-11659214D01*
X20809500Y-11944929D02*
X20780929Y-11959214D01*
X20723786Y-11959214D01*
X20695214Y-11944929D01*
X20680929Y-11916357D01*
X20680929Y-11802071D01*
X20695214Y-11773500D01*
X20723786Y-11759214D01*
X20780929Y-11759214D01*
X20809500Y-11773500D01*
X20823786Y-11802071D01*
X20823786Y-11830643D01*
X20680929Y-11859214D01*
X20938071Y-11944929D02*
X20966643Y-11959214D01*
X21023786Y-11959214D01*
X21052357Y-11944929D01*
X21066643Y-11916357D01*
X21066643Y-11902071D01*
X21052357Y-11873500D01*
X21023786Y-11859214D01*
X20980929Y-11859214D01*
X20952357Y-11844929D01*
X20938071Y-11816357D01*
X20938071Y-11802071D01*
X20952357Y-11773500D01*
X20980929Y-11759214D01*
X21023786Y-11759214D01*
X21052357Y-11773500D01*
X21166643Y-12073500D02*
X21180929Y-12059214D01*
X21209500Y-12016357D01*
X21223786Y-11987786D01*
X21238071Y-11944929D01*
X21252357Y-11873500D01*
X21252357Y-11816357D01*
X21238071Y-11744929D01*
X21223786Y-11702071D01*
X21209500Y-11673500D01*
X21180929Y-11630643D01*
X21166643Y-11616357D01*
D12*
X14409500Y-12219500D02*
G75*
G03X14409500Y-12219500I-25400J0D01*
G74*
G01*
D13*
X14738071Y-12055214D02*
X14766643Y-12055214D01*
X14795214Y-12069500D01*
X14809500Y-12083786D01*
X14823786Y-12112357D01*
X14838071Y-12169500D01*
X14838071Y-12240929D01*
X14823786Y-12298071D01*
X14809500Y-12326643D01*
X14795214Y-12340929D01*
X14766643Y-12355214D01*
X14738071Y-12355214D01*
X14709500Y-12340929D01*
X14695214Y-12326643D01*
X14680928Y-12298071D01*
X14666643Y-12240929D01*
X14666643Y-12169500D01*
X14680928Y-12112357D01*
X14695214Y-12083786D01*
X14709500Y-12069500D01*
X14738071Y-12055214D01*
X14966643Y-12326643D02*
X14980928Y-12340929D01*
X14966643Y-12355214D01*
X14952357Y-12340929D01*
X14966643Y-12326643D01*
X14966643Y-12355214D01*
X15252357Y-12055214D02*
X15109500Y-12055214D01*
X15095214Y-12198071D01*
X15109500Y-12183786D01*
X15138071Y-12169500D01*
X15209500Y-12169500D01*
X15238071Y-12183786D01*
X15252357Y-12198071D01*
X15266643Y-12226643D01*
X15266643Y-12298071D01*
X15252357Y-12326643D01*
X15238071Y-12340929D01*
X15209500Y-12355214D01*
X15138071Y-12355214D01*
X15109500Y-12340929D01*
X15095214Y-12326643D01*
X15552357Y-12355214D02*
X15380928Y-12355214D01*
X15466643Y-12355214D02*
X15466643Y-12055214D01*
X15438071Y-12098071D01*
X15409500Y-12126643D01*
X15380928Y-12140929D01*
X15680928Y-12355214D02*
X15680928Y-12155214D01*
X15680928Y-12183786D02*
X15695214Y-12169500D01*
X15723786Y-12155214D01*
X15766643Y-12155214D01*
X15795214Y-12169500D01*
X15809500Y-12198071D01*
X15809500Y-12355214D01*
X15809500Y-12198071D02*
X15823786Y-12169500D01*
X15852357Y-12155214D01*
X15895214Y-12155214D01*
X15923786Y-12169500D01*
X15938071Y-12198071D01*
X15938071Y-12355214D01*
X16080928Y-12355214D02*
X16080928Y-12155214D01*
X16080928Y-12183786D02*
X16095214Y-12169500D01*
X16123786Y-12155214D01*
X16166643Y-12155214D01*
X16195214Y-12169500D01*
X16209500Y-12198071D01*
X16209500Y-12355214D01*
X16209500Y-12198071D02*
X16223786Y-12169500D01*
X16252357Y-12155214D01*
X16295214Y-12155214D01*
X16323786Y-12169500D01*
X16338071Y-12198071D01*
X16338071Y-12355214D01*
X16923786Y-12040929D02*
X16666643Y-12426643D01*
X17309500Y-12055214D02*
X17338071Y-12055214D01*
X17366643Y-12069500D01*
X17380928Y-12083786D01*
X17395214Y-12112357D01*
X17409500Y-12169500D01*
X17409500Y-12240929D01*
X17395214Y-12298071D01*
X17380928Y-12326643D01*
X17366643Y-12340929D01*
X17338071Y-12355214D01*
X17309500Y-12355214D01*
X17280928Y-12340929D01*
X17266643Y-12326643D01*
X17252357Y-12298071D01*
X17238071Y-12240929D01*
X17238071Y-12169500D01*
X17252357Y-12112357D01*
X17266643Y-12083786D01*
X17280928Y-12069500D01*
X17309500Y-12055214D01*
X17538071Y-12326643D02*
X17552357Y-12340929D01*
X17538071Y-12355214D01*
X17523786Y-12340929D01*
X17538071Y-12326643D01*
X17538071Y-12355214D01*
X17738071Y-12055214D02*
X17766643Y-12055214D01*
X17795214Y-12069500D01*
X17809500Y-12083786D01*
X17823786Y-12112357D01*
X17838071Y-12169500D01*
X17838071Y-12240929D01*
X17823786Y-12298071D01*
X17809500Y-12326643D01*
X17795214Y-12340929D01*
X17766643Y-12355214D01*
X17738071Y-12355214D01*
X17709500Y-12340929D01*
X17695214Y-12326643D01*
X17680928Y-12298071D01*
X17666643Y-12240929D01*
X17666643Y-12169500D01*
X17680928Y-12112357D01*
X17695214Y-12083786D01*
X17709500Y-12069500D01*
X17738071Y-12055214D01*
X17952357Y-12083786D02*
X17966643Y-12069500D01*
X17995214Y-12055214D01*
X18066643Y-12055214D01*
X18095214Y-12069500D01*
X18109500Y-12083786D01*
X18123786Y-12112357D01*
X18123786Y-12140929D01*
X18109500Y-12183786D01*
X17938071Y-12355214D01*
X18123786Y-12355214D01*
X18309500Y-12055214D02*
X18338071Y-12055214D01*
X18366643Y-12069500D01*
X18380928Y-12083786D01*
X18395214Y-12112357D01*
X18409500Y-12169500D01*
X18409500Y-12240929D01*
X18395214Y-12298071D01*
X18380928Y-12326643D01*
X18366643Y-12340929D01*
X18338071Y-12355214D01*
X18309500Y-12355214D01*
X18280928Y-12340929D01*
X18266643Y-12326643D01*
X18252357Y-12298071D01*
X18238071Y-12240929D01*
X18238071Y-12169500D01*
X18252357Y-12112357D01*
X18266643Y-12083786D01*
X18280928Y-12069500D01*
X18309500Y-12055214D01*
X18523786Y-12055214D02*
X18523786Y-12112357D01*
X18638071Y-12055214D02*
X18638071Y-12112357D01*
X19080928Y-12469500D02*
X19066643Y-12455214D01*
X19038071Y-12412357D01*
X19023786Y-12383786D01*
X19009500Y-12340929D01*
X18995214Y-12269500D01*
X18995214Y-12212357D01*
X19009500Y-12140929D01*
X19023786Y-12098071D01*
X19038071Y-12069500D01*
X19066643Y-12026643D01*
X19080928Y-12012357D01*
X19323786Y-12155214D02*
X19323786Y-12355214D01*
X19252357Y-12040929D02*
X19180928Y-12255214D01*
X19366643Y-12255214D01*
X19709500Y-12355214D02*
X19709500Y-12055214D01*
X19838071Y-12355214D02*
X19838071Y-12198071D01*
X19823786Y-12169500D01*
X19795214Y-12155214D01*
X19752357Y-12155214D01*
X19723786Y-12169500D01*
X19709500Y-12183786D01*
X20023786Y-12355214D02*
X19995214Y-12340929D01*
X19980928Y-12326643D01*
X19966643Y-12298071D01*
X19966643Y-12212357D01*
X19980928Y-12183786D01*
X19995214Y-12169500D01*
X20023786Y-12155214D01*
X20066643Y-12155214D01*
X20095214Y-12169500D01*
X20109500Y-12183786D01*
X20123786Y-12212357D01*
X20123786Y-12298071D01*
X20109500Y-12326643D01*
X20095214Y-12340929D01*
X20066643Y-12355214D01*
X20023786Y-12355214D01*
X20295214Y-12355214D02*
X20266643Y-12340929D01*
X20252357Y-12312357D01*
X20252357Y-12055214D01*
X20523786Y-12340929D02*
X20495214Y-12355214D01*
X20438071Y-12355214D01*
X20409500Y-12340929D01*
X20395214Y-12312357D01*
X20395214Y-12198071D01*
X20409500Y-12169500D01*
X20438071Y-12155214D01*
X20495214Y-12155214D01*
X20523786Y-12169500D01*
X20538071Y-12198071D01*
X20538071Y-12226643D01*
X20395214Y-12255214D01*
X20652357Y-12340929D02*
X20680929Y-12355214D01*
X20738071Y-12355214D01*
X20766643Y-12340929D01*
X20780929Y-12312357D01*
X20780929Y-12298071D01*
X20766643Y-12269500D01*
X20738071Y-12255214D01*
X20695214Y-12255214D01*
X20666643Y-12240929D01*
X20652357Y-12212357D01*
X20652357Y-12198071D01*
X20666643Y-12169500D01*
X20695214Y-12155214D01*
X20738071Y-12155214D01*
X20766643Y-12169500D01*
X20880928Y-12469500D02*
X20895214Y-12455214D01*
X20923786Y-12412357D01*
X20938071Y-12383786D01*
X20952357Y-12340929D01*
X20966643Y-12269500D01*
X20966643Y-12212357D01*
X20952357Y-12140929D01*
X20938071Y-12098071D01*
X20923786Y-12069500D01*
X20895214Y-12026643D01*
X20880928Y-12012357D01*
X14373940Y-12579940D02*
X14373940Y-12651060D01*
X14338380Y-12615500D02*
X14409500Y-12615500D01*
X14738071Y-12451214D02*
X14766643Y-12451214D01*
X14795214Y-12465500D01*
X14809500Y-12479786D01*
X14823786Y-12508357D01*
X14838071Y-12565500D01*
X14838071Y-12636929D01*
X14823786Y-12694071D01*
X14809500Y-12722643D01*
X14795214Y-12736929D01*
X14766643Y-12751214D01*
X14738071Y-12751214D01*
X14709500Y-12736929D01*
X14695214Y-12722643D01*
X14680928Y-12694071D01*
X14666643Y-12636929D01*
X14666643Y-12565500D01*
X14680928Y-12508357D01*
X14695214Y-12479786D01*
X14709500Y-12465500D01*
X14738071Y-12451214D01*
X14966643Y-12722643D02*
X14980928Y-12736929D01*
X14966643Y-12751214D01*
X14952357Y-12736929D01*
X14966643Y-12722643D01*
X14966643Y-12751214D01*
X15080928Y-12451214D02*
X15280928Y-12451214D01*
X15152357Y-12751214D01*
X15552357Y-12751214D02*
X15380928Y-12751214D01*
X15466643Y-12751214D02*
X15466643Y-12451214D01*
X15438071Y-12494071D01*
X15409500Y-12522643D01*
X15380928Y-12536929D01*
X15680928Y-12751214D02*
X15680928Y-12551214D01*
X15680928Y-12579786D02*
X15695214Y-12565500D01*
X15723786Y-12551214D01*
X15766643Y-12551214D01*
X15795214Y-12565500D01*
X15809500Y-12594071D01*
X15809500Y-12751214D01*
X15809500Y-12594071D02*
X15823786Y-12565500D01*
X15852357Y-12551214D01*
X15895214Y-12551214D01*
X15923786Y-12565500D01*
X15938071Y-12594071D01*
X15938071Y-12751214D01*
X16080928Y-12751214D02*
X16080928Y-12551214D01*
X16080928Y-12579786D02*
X16095214Y-12565500D01*
X16123786Y-12551214D01*
X16166643Y-12551214D01*
X16195214Y-12565500D01*
X16209500Y-12594071D01*
X16209500Y-12751214D01*
X16209500Y-12594071D02*
X16223786Y-12565500D01*
X16252357Y-12551214D01*
X16295214Y-12551214D01*
X16323786Y-12565500D01*
X16338071Y-12594071D01*
X16338071Y-12751214D01*
X16923786Y-12436929D02*
X16666643Y-12822643D01*
X17309500Y-12451214D02*
X17338071Y-12451214D01*
X17366643Y-12465500D01*
X17380928Y-12479786D01*
X17395214Y-12508357D01*
X17409500Y-12565500D01*
X17409500Y-12636929D01*
X17395214Y-12694071D01*
X17380928Y-12722643D01*
X17366643Y-12736929D01*
X17338071Y-12751214D01*
X17309500Y-12751214D01*
X17280928Y-12736929D01*
X17266643Y-12722643D01*
X17252357Y-12694071D01*
X17238071Y-12636929D01*
X17238071Y-12565500D01*
X17252357Y-12508357D01*
X17266643Y-12479786D01*
X17280928Y-12465500D01*
X17309500Y-12451214D01*
X17538071Y-12722643D02*
X17552357Y-12736929D01*
X17538071Y-12751214D01*
X17523786Y-12736929D01*
X17538071Y-12722643D01*
X17538071Y-12751214D01*
X17738071Y-12451214D02*
X17766643Y-12451214D01*
X17795214Y-12465500D01*
X17809500Y-12479786D01*
X17823786Y-12508357D01*
X17838071Y-12565500D01*
X17838071Y-12636929D01*
X17823786Y-12694071D01*
X17809500Y-12722643D01*
X17795214Y-12736929D01*
X17766643Y-12751214D01*
X17738071Y-12751214D01*
X17709500Y-12736929D01*
X17695214Y-12722643D01*
X17680928Y-12694071D01*
X17666643Y-12636929D01*
X17666643Y-12565500D01*
X17680928Y-12508357D01*
X17695214Y-12479786D01*
X17709500Y-12465500D01*
X17738071Y-12451214D01*
X17952357Y-12479786D02*
X17966643Y-12465500D01*
X17995214Y-12451214D01*
X18066643Y-12451214D01*
X18095214Y-12465500D01*
X18109500Y-12479786D01*
X18123786Y-12508357D01*
X18123786Y-12536929D01*
X18109500Y-12579786D01*
X17938071Y-12751214D01*
X18123786Y-12751214D01*
X18295214Y-12579786D02*
X18266643Y-12565500D01*
X18252357Y-12551214D01*
X18238071Y-12522643D01*
X18238071Y-12508357D01*
X18252357Y-12479786D01*
X18266643Y-12465500D01*
X18295214Y-12451214D01*
X18352357Y-12451214D01*
X18380928Y-12465500D01*
X18395214Y-12479786D01*
X18409500Y-12508357D01*
X18409500Y-12522643D01*
X18395214Y-12551214D01*
X18380928Y-12565500D01*
X18352357Y-12579786D01*
X18295214Y-12579786D01*
X18266643Y-12594071D01*
X18252357Y-12608357D01*
X18238071Y-12636929D01*
X18238071Y-12694071D01*
X18252357Y-12722643D01*
X18266643Y-12736929D01*
X18295214Y-12751214D01*
X18352357Y-12751214D01*
X18380928Y-12736929D01*
X18395214Y-12722643D01*
X18409500Y-12694071D01*
X18409500Y-12636929D01*
X18395214Y-12608357D01*
X18380928Y-12594071D01*
X18352357Y-12579786D01*
X18523786Y-12451214D02*
X18523786Y-12508357D01*
X18638071Y-12451214D02*
X18638071Y-12508357D01*
X19080928Y-12865500D02*
X19066643Y-12851214D01*
X19038071Y-12808357D01*
X19023786Y-12779786D01*
X19009500Y-12736929D01*
X18995214Y-12665500D01*
X18995214Y-12608357D01*
X19009500Y-12536929D01*
X19023786Y-12494071D01*
X19038071Y-12465500D01*
X19066643Y-12422643D01*
X19080928Y-12408357D01*
X19323786Y-12451214D02*
X19266643Y-12451214D01*
X19238071Y-12465500D01*
X19223786Y-12479786D01*
X19195214Y-12522643D01*
X19180928Y-12579786D01*
X19180928Y-12694071D01*
X19195214Y-12722643D01*
X19209500Y-12736929D01*
X19238071Y-12751214D01*
X19295214Y-12751214D01*
X19323786Y-12736929D01*
X19338071Y-12722643D01*
X19352357Y-12694071D01*
X19352357Y-12622643D01*
X19338071Y-12594071D01*
X19323786Y-12579786D01*
X19295214Y-12565500D01*
X19238071Y-12565500D01*
X19209500Y-12579786D01*
X19195214Y-12594071D01*
X19180928Y-12622643D01*
X19709500Y-12751214D02*
X19709500Y-12451214D01*
X19838071Y-12751214D02*
X19838071Y-12594071D01*
X19823786Y-12565500D01*
X19795214Y-12551214D01*
X19752357Y-12551214D01*
X19723786Y-12565500D01*
X19709500Y-12579786D01*
X20023786Y-12751214D02*
X19995214Y-12736929D01*
X19980928Y-12722643D01*
X19966643Y-12694071D01*
X19966643Y-12608357D01*
X19980928Y-12579786D01*
X19995214Y-12565500D01*
X20023786Y-12551214D01*
X20066643Y-12551214D01*
X20095214Y-12565500D01*
X20109500Y-12579786D01*
X20123786Y-12608357D01*
X20123786Y-12694071D01*
X20109500Y-12722643D01*
X20095214Y-12736929D01*
X20066643Y-12751214D01*
X20023786Y-12751214D01*
X20295214Y-12751214D02*
X20266643Y-12736929D01*
X20252357Y-12708357D01*
X20252357Y-12451214D01*
X20523786Y-12736929D02*
X20495214Y-12751214D01*
X20438071Y-12751214D01*
X20409500Y-12736929D01*
X20395214Y-12708357D01*
X20395214Y-12594071D01*
X20409500Y-12565500D01*
X20438071Y-12551214D01*
X20495214Y-12551214D01*
X20523786Y-12565500D01*
X20538071Y-12594071D01*
X20538071Y-12622643D01*
X20395214Y-12651214D01*
X20652357Y-12736929D02*
X20680929Y-12751214D01*
X20738071Y-12751214D01*
X20766643Y-12736929D01*
X20780929Y-12708357D01*
X20780929Y-12694071D01*
X20766643Y-12665500D01*
X20738071Y-12651214D01*
X20695214Y-12651214D01*
X20666643Y-12636929D01*
X20652357Y-12608357D01*
X20652357Y-12594071D01*
X20666643Y-12565500D01*
X20695214Y-12551214D01*
X20738071Y-12551214D01*
X20766643Y-12565500D01*
X20880928Y-12865500D02*
X20895214Y-12851214D01*
X20923786Y-12808357D01*
X20938071Y-12779786D01*
X20952357Y-12736929D01*
X20966643Y-12665500D01*
X20966643Y-12608357D01*
X20952357Y-12536929D01*
X20938071Y-12494071D01*
X20923786Y-12465500D01*
X20895214Y-12422643D01*
X20880928Y-12408357D01*
D12*
D13*
X14838071Y-13147214D02*
X14666643Y-13147214D01*
X14752357Y-13147214D02*
X14752357Y-12847214D01*
X14723786Y-12890071D01*
X14695214Y-12918643D01*
X14666643Y-12932929D01*
X14966643Y-13118643D02*
X14980928Y-13132929D01*
X14966643Y-13147214D01*
X14952357Y-13132929D01*
X14966643Y-13118643D01*
X14966643Y-13147214D01*
X15166643Y-12847214D02*
X15195214Y-12847214D01*
X15223786Y-12861500D01*
X15238071Y-12875786D01*
X15252357Y-12904357D01*
X15266643Y-12961500D01*
X15266643Y-13032929D01*
X15252357Y-13090071D01*
X15238071Y-13118643D01*
X15223786Y-13132929D01*
X15195214Y-13147214D01*
X15166643Y-13147214D01*
X15138071Y-13132929D01*
X15123786Y-13118643D01*
X15109500Y-13090071D01*
X15095214Y-13032929D01*
X15095214Y-12961500D01*
X15109500Y-12904357D01*
X15123786Y-12875786D01*
X15138071Y-12861500D01*
X15166643Y-12847214D01*
X15380928Y-12875786D02*
X15395214Y-12861500D01*
X15423786Y-12847214D01*
X15495214Y-12847214D01*
X15523786Y-12861500D01*
X15538071Y-12875786D01*
X15552357Y-12904357D01*
X15552357Y-12932929D01*
X15538071Y-12975786D01*
X15366643Y-13147214D01*
X15552357Y-13147214D01*
X15680928Y-13147214D02*
X15680928Y-12947214D01*
X15680928Y-12975786D02*
X15695214Y-12961500D01*
X15723786Y-12947214D01*
X15766643Y-12947214D01*
X15795214Y-12961500D01*
X15809500Y-12990071D01*
X15809500Y-13147214D01*
X15809500Y-12990071D02*
X15823786Y-12961500D01*
X15852357Y-12947214D01*
X15895214Y-12947214D01*
X15923786Y-12961500D01*
X15938071Y-12990071D01*
X15938071Y-13147214D01*
X16080928Y-13147214D02*
X16080928Y-12947214D01*
X16080928Y-12975786D02*
X16095214Y-12961500D01*
X16123786Y-12947214D01*
X16166643Y-12947214D01*
X16195214Y-12961500D01*
X16209500Y-12990071D01*
X16209500Y-13147214D01*
X16209500Y-12990071D02*
X16223786Y-12961500D01*
X16252357Y-12947214D01*
X16295214Y-12947214D01*
X16323786Y-12961500D01*
X16338071Y-12990071D01*
X16338071Y-13147214D01*
X16923786Y-12832929D02*
X16666643Y-13218643D01*
X17309500Y-12847214D02*
X17338071Y-12847214D01*
X17366643Y-12861500D01*
X17380928Y-12875786D01*
X17395214Y-12904357D01*
X17409500Y-12961500D01*
X17409500Y-13032929D01*
X17395214Y-13090071D01*
X17380928Y-13118643D01*
X17366643Y-13132929D01*
X17338071Y-13147214D01*
X17309500Y-13147214D01*
X17280928Y-13132929D01*
X17266643Y-13118643D01*
X17252357Y-13090071D01*
X17238071Y-13032929D01*
X17238071Y-12961500D01*
X17252357Y-12904357D01*
X17266643Y-12875786D01*
X17280928Y-12861500D01*
X17309500Y-12847214D01*
X17538071Y-13118643D02*
X17552357Y-13132929D01*
X17538071Y-13147214D01*
X17523786Y-13132929D01*
X17538071Y-13118643D01*
X17538071Y-13147214D01*
X17738071Y-12847214D02*
X17766643Y-12847214D01*
X17795214Y-12861500D01*
X17809500Y-12875786D01*
X17823786Y-12904357D01*
X17838071Y-12961500D01*
X17838071Y-13032929D01*
X17823786Y-13090071D01*
X17809500Y-13118643D01*
X17795214Y-13132929D01*
X17766643Y-13147214D01*
X17738071Y-13147214D01*
X17709500Y-13132929D01*
X17695214Y-13118643D01*
X17680928Y-13090071D01*
X17666643Y-13032929D01*
X17666643Y-12961500D01*
X17680928Y-12904357D01*
X17695214Y-12875786D01*
X17709500Y-12861500D01*
X17738071Y-12847214D01*
X18095214Y-12947214D02*
X18095214Y-13147214D01*
X18023786Y-12832929D02*
X17952357Y-13047214D01*
X18138071Y-13047214D01*
X18309500Y-12847214D02*
X18338071Y-12847214D01*
X18366643Y-12861500D01*
X18380928Y-12875786D01*
X18395214Y-12904357D01*
X18409500Y-12961500D01*
X18409500Y-13032929D01*
X18395214Y-13090071D01*
X18380928Y-13118643D01*
X18366643Y-13132929D01*
X18338071Y-13147214D01*
X18309500Y-13147214D01*
X18280928Y-13132929D01*
X18266643Y-13118643D01*
X18252357Y-13090071D01*
X18238071Y-13032929D01*
X18238071Y-12961500D01*
X18252357Y-12904357D01*
X18266643Y-12875786D01*
X18280928Y-12861500D01*
X18309500Y-12847214D01*
X18523786Y-12847214D02*
X18523786Y-12904357D01*
X18638071Y-12847214D02*
X18638071Y-12904357D01*
X19080928Y-13261500D02*
X19066643Y-13247214D01*
X19038071Y-13204357D01*
X19023786Y-13175786D01*
X19009500Y-13132929D01*
X18995214Y-13061500D01*
X18995214Y-13004357D01*
X19009500Y-12932929D01*
X19023786Y-12890071D01*
X19038071Y-12861500D01*
X19066643Y-12818643D01*
X19080928Y-12804357D01*
X19338071Y-12847214D02*
X19195214Y-12847214D01*
X19180928Y-12990071D01*
X19195214Y-12975786D01*
X19223786Y-12961500D01*
X19295214Y-12961500D01*
X19323786Y-12975786D01*
X19338071Y-12990071D01*
X19352357Y-13018643D01*
X19352357Y-13090071D01*
X19338071Y-13118643D01*
X19323786Y-13132929D01*
X19295214Y-13147214D01*
X19223786Y-13147214D01*
X19195214Y-13132929D01*
X19180928Y-13118643D01*
X19709500Y-13147214D02*
X19709500Y-12847214D01*
X19838071Y-13147214D02*
X19838071Y-12990071D01*
X19823786Y-12961500D01*
X19795214Y-12947214D01*
X19752357Y-12947214D01*
X19723786Y-12961500D01*
X19709500Y-12975786D01*
X20023786Y-13147214D02*
X19995214Y-13132929D01*
X19980928Y-13118643D01*
X19966643Y-13090071D01*
X19966643Y-13004357D01*
X19980928Y-12975786D01*
X19995214Y-12961500D01*
X20023786Y-12947214D01*
X20066643Y-12947214D01*
X20095214Y-12961500D01*
X20109500Y-12975786D01*
X20123786Y-13004357D01*
X20123786Y-13090071D01*
X20109500Y-13118643D01*
X20095214Y-13132929D01*
X20066643Y-13147214D01*
X20023786Y-13147214D01*
X20295214Y-13147214D02*
X20266643Y-13132929D01*
X20252357Y-13104357D01*
X20252357Y-12847214D01*
X20523786Y-13132929D02*
X20495214Y-13147214D01*
X20438071Y-13147214D01*
X20409500Y-13132929D01*
X20395214Y-13104357D01*
X20395214Y-12990071D01*
X20409500Y-12961500D01*
X20438071Y-12947214D01*
X20495214Y-12947214D01*
X20523786Y-12961500D01*
X20538071Y-12990071D01*
X20538071Y-13018643D01*
X20395214Y-13047214D01*
X20652357Y-13132929D02*
X20680929Y-13147214D01*
X20738071Y-13147214D01*
X20766643Y-13132929D01*
X20780929Y-13104357D01*
X20780929Y-13090071D01*
X20766643Y-13061500D01*
X20738071Y-13047214D01*
X20695214Y-13047214D01*
X20666643Y-13032929D01*
X20652357Y-13004357D01*
X20652357Y-12990071D01*
X20666643Y-12961500D01*
X20695214Y-12947214D01*
X20738071Y-12947214D01*
X20766643Y-12961500D01*
X20880928Y-13261500D02*
X20895214Y-13247214D01*
X20923786Y-13204357D01*
X20938071Y-13175786D01*
X20952357Y-13132929D01*
X20966643Y-13061500D01*
X20966643Y-13004357D01*
X20952357Y-12932929D01*
X20938071Y-12890071D01*
X20923786Y-12861500D01*
X20895214Y-12818643D01*
X20880928Y-12804357D01*
M02*
