%FSLAX46Y46*%
G04 Gerber Fmt 4.6, Leading zero omitted, Abs format (unit mm)*
G04 Created by KiCad (PCBNEW (2014-08-05 BZR 5054)-product) date 06/11/2014 16:14:12*
%MOMM*%
G01*
G04 APERTURE LIST*
%ADD10C,0.100000*%
%ADD11R,2.499360X1.950720*%
%ADD12R,0.635000X1.143000*%
%ADD13R,1.198880X1.198880*%
%ADD14R,1.470660X0.419100*%
%ADD15R,2.032000X1.727200*%
%ADD16O,2.032000X1.727200*%
%ADD17C,1.066800*%
%ADD18R,2.032000X2.032000*%
%ADD19O,2.032000X2.032000*%
%ADD20R,1.998980X0.599440*%
%ADD21R,1.143000X0.635000*%
%ADD22R,1.270000X2.540000*%
%ADD23C,0.889000*%
G04 APERTURE END LIST*
D10*
D11*
X146050000Y-103759000D03*
X146050000Y-106807000D03*
X164592000Y-100203000D03*
X164592000Y-97155000D03*
D12*
X162433000Y-100457000D03*
X160909000Y-100457000D03*
X157861000Y-107315000D03*
X159385000Y-107315000D03*
D13*
X164244020Y-107315000D03*
X162145980Y-107315000D03*
D14*
X157982920Y-102674420D03*
X157982920Y-103319580D03*
X157982920Y-103972360D03*
X157982920Y-102021640D03*
X163581080Y-103972360D03*
X163581080Y-103319580D03*
X163581080Y-102674420D03*
X163581080Y-102021640D03*
D15*
X167640000Y-104140000D03*
D16*
X167640000Y-101600000D03*
X167640000Y-99060000D03*
D17*
X159131000Y-98552000D03*
X159131000Y-97282000D03*
X160401000Y-98552000D03*
X160401000Y-97282000D03*
X161671000Y-98552000D03*
X161671000Y-97282000D03*
D18*
X146050000Y-97790000D03*
D19*
X146050000Y-100330000D03*
D20*
X154686000Y-103505000D03*
X154686000Y-102235000D03*
X154686000Y-100965000D03*
X154686000Y-99695000D03*
X149098000Y-99695000D03*
X149098000Y-100965000D03*
X149098000Y-102235000D03*
X149098000Y-103505000D03*
D12*
X167386000Y-107315000D03*
X165862000Y-107315000D03*
D21*
X156972000Y-98679000D03*
X156972000Y-97155000D03*
D12*
X157861000Y-105537000D03*
X159385000Y-105537000D03*
X154559000Y-105410000D03*
X156083000Y-105410000D03*
X154559000Y-107188000D03*
X156083000Y-107188000D03*
D22*
X149479000Y-106680000D03*
X152527000Y-106680000D03*
D12*
X158369000Y-100457000D03*
X156845000Y-100457000D03*
D23*
X165354000Y-105410000D03*
M02*
