%FSLAX46Y46*%
G04 Gerber Fmt 4.6, Leading zero omitted, Abs format (unit mm)*
G04 Created by KiCad (PCBNEW (2014-08-05 BZR 5054)-product) date 06/11/2014 16:14:12*
%MOMM*%
G01*
G04 APERTURE LIST*
%ADD10C,0.100000*%
%ADD11C,0.127000*%
%ADD12C,0.066040*%
%ADD13C,0.101600*%
%ADD14C,0.050800*%
%ADD15C,0.150000*%
%ADD16C,0.149860*%
%ADD17R,2.499360X1.950720*%
%ADD18R,0.635000X1.143000*%
%ADD19R,1.198880X1.198880*%
%ADD20R,1.470660X0.419100*%
%ADD21R,2.032000X1.727200*%
%ADD22O,2.032000X1.727200*%
%ADD23C,1.066800*%
%ADD24R,2.032000X2.032000*%
%ADD25O,2.032000X2.032000*%
%ADD26R,1.998980X0.599440*%
%ADD27R,1.143000X0.635000*%
%ADD28R,1.270000X2.540000*%
%ADD29C,0.889000*%
G04 APERTURE END LIST*
D10*
D11*
X144653000Y-104076500D02*
X147447000Y-104076500D01*
X144653000Y-103505000D02*
X144653000Y-107061000D01*
X144653000Y-107061000D02*
X147447000Y-107061000D01*
X147447000Y-107061000D02*
X147447000Y-103505000D01*
X147447000Y-103505000D02*
X144653000Y-103505000D01*
X165989000Y-99885500D02*
X163195000Y-99885500D01*
X165989000Y-100457000D02*
X165989000Y-96901000D01*
X165989000Y-96901000D02*
X163195000Y-96901000D01*
X163195000Y-96901000D02*
X163195000Y-100457000D01*
X163195000Y-100457000D02*
X165989000Y-100457000D01*
X162814000Y-101092000D02*
X160528000Y-101092000D01*
X160528000Y-101092000D02*
X160528000Y-99822000D01*
X160528000Y-99822000D02*
X162814000Y-99822000D01*
X162814000Y-99822000D02*
X162814000Y-101092000D01*
X157480000Y-106680000D02*
X159766000Y-106680000D01*
X159766000Y-106680000D02*
X159766000Y-107950000D01*
X159766000Y-107950000D02*
X157480000Y-107950000D01*
X157480000Y-107950000D02*
X157480000Y-106680000D01*
D12*
X162697160Y-107015280D02*
X162697160Y-106690160D01*
X162697160Y-106690160D02*
X162196780Y-106690160D01*
X162196780Y-107015280D02*
X162196780Y-106690160D01*
X162697160Y-107015280D02*
X162196780Y-107015280D01*
X162697160Y-107637580D02*
X162697160Y-107487720D01*
X162697160Y-107487720D02*
X162445700Y-107487720D01*
X162445700Y-107637580D02*
X162445700Y-107487720D01*
X162697160Y-107637580D02*
X162445700Y-107637580D01*
X162697160Y-107142280D02*
X162697160Y-106992420D01*
X162697160Y-106992420D02*
X162445700Y-106992420D01*
X162445700Y-107142280D02*
X162445700Y-106992420D01*
X162697160Y-107142280D02*
X162445700Y-107142280D01*
X162697160Y-107513120D02*
X162697160Y-107116880D01*
X162697160Y-107116880D02*
X162521900Y-107116880D01*
X162521900Y-107513120D02*
X162521900Y-107116880D01*
X162697160Y-107513120D02*
X162521900Y-107513120D01*
X164193220Y-107015280D02*
X164193220Y-106690160D01*
X164193220Y-106690160D02*
X163692840Y-106690160D01*
X163692840Y-107015280D02*
X163692840Y-106690160D01*
X164193220Y-107015280D02*
X163692840Y-107015280D01*
X164193220Y-107939840D02*
X164193220Y-107614720D01*
X164193220Y-107614720D02*
X163692840Y-107614720D01*
X163692840Y-107939840D02*
X163692840Y-107614720D01*
X164193220Y-107939840D02*
X163692840Y-107939840D01*
X163944300Y-107142280D02*
X163944300Y-106992420D01*
X163944300Y-106992420D02*
X163692840Y-106992420D01*
X163692840Y-107142280D02*
X163692840Y-106992420D01*
X163944300Y-107142280D02*
X163692840Y-107142280D01*
X163944300Y-107637580D02*
X163944300Y-107487720D01*
X163944300Y-107487720D02*
X163692840Y-107487720D01*
X163692840Y-107637580D02*
X163692840Y-107487720D01*
X163944300Y-107637580D02*
X163692840Y-107637580D01*
X163868100Y-107513120D02*
X163868100Y-107116880D01*
X163868100Y-107116880D02*
X163692840Y-107116880D01*
X163692840Y-107513120D02*
X163692840Y-107116880D01*
X163868100Y-107513120D02*
X163692840Y-107513120D01*
X163195000Y-107414060D02*
X163195000Y-107215940D01*
X163195000Y-107215940D02*
X162996880Y-107215940D01*
X162996880Y-107414060D02*
X162996880Y-107215940D01*
X163195000Y-107414060D02*
X162996880Y-107414060D01*
X162697160Y-107914440D02*
X162697160Y-107614720D01*
X162697160Y-107614720D02*
X162397440Y-107614720D01*
X162397440Y-107914440D02*
X162397440Y-107614720D01*
X162697160Y-107914440D02*
X162397440Y-107914440D01*
X162270440Y-107939840D02*
X162270440Y-107713780D01*
X162270440Y-107713780D02*
X162196780Y-107713780D01*
X162196780Y-107939840D02*
X162196780Y-107713780D01*
X162270440Y-107939840D02*
X162196780Y-107939840D01*
D13*
X162671760Y-106740960D02*
X163718240Y-106740960D01*
X163692840Y-107889040D02*
X162270440Y-107889040D01*
D14*
X162418482Y-107764580D02*
G75*
G03X162418482Y-107764580I-71842J0D01*
G74*
G01*
D13*
X162196780Y-107662980D02*
G75*
G03X162196780Y-106967020I0J347980D01*
G74*
G01*
X164193220Y-106967020D02*
G75*
G03X164193220Y-107662980I0J-347980D01*
G74*
G01*
D11*
X158480760Y-101447600D02*
X158480760Y-104546400D01*
X158480760Y-104546400D02*
X163083240Y-104546400D01*
X163083240Y-104546400D02*
X163083240Y-101447600D01*
X163083240Y-101447600D02*
X158480760Y-101447600D01*
X159541981Y-102090220D02*
G75*
G03X159541981Y-102090220I-283981J0D01*
G74*
G01*
D15*
X168910000Y-102870000D02*
X168910000Y-97790000D01*
X168910000Y-97790000D02*
X166370000Y-97790000D01*
X166370000Y-97790000D02*
X166370000Y-102870000D01*
X166370000Y-105410000D02*
X166370000Y-102870000D01*
X166370000Y-102870000D02*
X168910000Y-102870000D01*
X166370000Y-105410000D02*
X168910000Y-105410000D01*
X168910000Y-105410000D02*
X168910000Y-102870000D01*
D16*
X158750000Y-99441000D02*
X158242000Y-98933000D01*
X158496000Y-99441000D02*
X158242000Y-99187000D01*
X158242000Y-99441000D02*
X162560000Y-99441000D01*
X162560000Y-99441000D02*
X162560000Y-96393000D01*
X162560000Y-96393000D02*
X158242000Y-96393000D01*
X158242000Y-96393000D02*
X158242000Y-99441000D01*
D15*
X147320000Y-99060000D02*
X144780000Y-99060000D01*
X147320000Y-96520000D02*
X144780000Y-96520000D01*
X144780000Y-96520000D02*
X144780000Y-99060000D01*
X144780000Y-99060000D02*
X144780000Y-101600000D01*
X144780000Y-101600000D02*
X147320000Y-101600000D01*
X147320000Y-101600000D02*
X147320000Y-96520000D01*
D11*
X149910800Y-104013000D02*
X153873200Y-104013000D01*
X153873200Y-104013000D02*
X153873200Y-99187000D01*
X153873200Y-99187000D02*
X149910800Y-99187000D01*
X149910800Y-99187000D02*
X149910800Y-104013000D01*
X149910800Y-103505000D02*
X148818600Y-103505000D01*
X149910800Y-102235000D02*
X148818600Y-102235000D01*
X149910800Y-100965000D02*
X148818600Y-100965000D01*
X148818600Y-99695000D02*
X149910800Y-99695000D01*
X153873200Y-99695000D02*
X154965400Y-99695000D01*
X154965400Y-100965000D02*
X153873200Y-100965000D01*
X154965400Y-102235000D02*
X153873200Y-102235000D01*
X154965400Y-103505000D02*
X153873200Y-103505000D01*
X153609067Y-103276400D02*
G75*
G03X153609067Y-103276400I-472467J0D01*
G74*
G01*
X167767000Y-107950000D02*
X165481000Y-107950000D01*
X165481000Y-107950000D02*
X165481000Y-106680000D01*
X165481000Y-106680000D02*
X167767000Y-106680000D01*
X167767000Y-106680000D02*
X167767000Y-107950000D01*
X156337000Y-99060000D02*
X156337000Y-96774000D01*
X156337000Y-96774000D02*
X157607000Y-96774000D01*
X157607000Y-96774000D02*
X157607000Y-99060000D01*
X157607000Y-99060000D02*
X156337000Y-99060000D01*
X157480000Y-104902000D02*
X159766000Y-104902000D01*
X159766000Y-104902000D02*
X159766000Y-106172000D01*
X159766000Y-106172000D02*
X157480000Y-106172000D01*
X157480000Y-106172000D02*
X157480000Y-104902000D01*
X154178000Y-104775000D02*
X156464000Y-104775000D01*
X156464000Y-104775000D02*
X156464000Y-106045000D01*
X156464000Y-106045000D02*
X154178000Y-106045000D01*
X154178000Y-106045000D02*
X154178000Y-104775000D01*
X154178000Y-106553000D02*
X156464000Y-106553000D01*
X156464000Y-106553000D02*
X156464000Y-107823000D01*
X156464000Y-107823000D02*
X154178000Y-107823000D01*
X154178000Y-107823000D02*
X154178000Y-106553000D01*
X148769605Y-108204000D02*
G75*
G03X148769605Y-108204000I-179605J0D01*
G74*
G01*
X150241000Y-105283000D02*
X148717000Y-105283000D01*
X148717000Y-105283000D02*
X148717000Y-108077000D01*
X148717000Y-108077000D02*
X150241000Y-108077000D01*
X151765000Y-108077000D02*
X153289000Y-108077000D01*
X153289000Y-108077000D02*
X153289000Y-105283000D01*
X153289000Y-105283000D02*
X151765000Y-105283000D01*
X158750000Y-101092000D02*
X156464000Y-101092000D01*
X156464000Y-101092000D02*
X156464000Y-99822000D01*
X156464000Y-99822000D02*
X158750000Y-99822000D01*
X158750000Y-99822000D02*
X158750000Y-101092000D01*
D15*
X165921961Y-105410000D02*
G75*
G03X165921961Y-105410000I-567961J0D01*
G74*
G01*
D11*
X148103167Y-104920143D02*
X148072929Y-104956429D01*
X147982214Y-104992714D01*
X147921738Y-104992714D01*
X147831024Y-104956429D01*
X147770548Y-104883857D01*
X147740309Y-104811286D01*
X147710071Y-104666143D01*
X147710071Y-104557286D01*
X147740309Y-104412143D01*
X147770548Y-104339571D01*
X147831024Y-104267000D01*
X147921738Y-104230714D01*
X147982214Y-104230714D01*
X148072929Y-104267000D01*
X148103167Y-104303286D01*
X148707929Y-104992714D02*
X148345071Y-104992714D01*
X148526500Y-104992714D02*
X148526500Y-104230714D01*
X148466024Y-104339571D01*
X148405548Y-104412143D01*
X148345071Y-104448429D01*
X165248167Y-101999143D02*
X165217929Y-102035429D01*
X165127214Y-102071714D01*
X165066738Y-102071714D01*
X164976024Y-102035429D01*
X164915548Y-101962857D01*
X164885309Y-101890286D01*
X164855071Y-101745143D01*
X164855071Y-101636286D01*
X164885309Y-101491143D01*
X164915548Y-101418571D01*
X164976024Y-101346000D01*
X165066738Y-101309714D01*
X165127214Y-101309714D01*
X165217929Y-101346000D01*
X165248167Y-101382286D01*
X165490071Y-101382286D02*
X165520309Y-101346000D01*
X165580786Y-101309714D01*
X165731976Y-101309714D01*
X165792452Y-101346000D01*
X165822690Y-101382286D01*
X165852929Y-101454857D01*
X165852929Y-101527429D01*
X165822690Y-101636286D01*
X165459833Y-102071714D01*
X165852929Y-102071714D01*
X159660167Y-100729143D02*
X159629929Y-100765429D01*
X159539214Y-100801714D01*
X159478738Y-100801714D01*
X159388024Y-100765429D01*
X159327548Y-100692857D01*
X159297309Y-100620286D01*
X159267071Y-100475143D01*
X159267071Y-100366286D01*
X159297309Y-100221143D01*
X159327548Y-100148571D01*
X159388024Y-100076000D01*
X159478738Y-100039714D01*
X159539214Y-100039714D01*
X159629929Y-100076000D01*
X159660167Y-100112286D01*
X159871833Y-100039714D02*
X160264929Y-100039714D01*
X160053262Y-100330000D01*
X160143976Y-100330000D01*
X160204452Y-100366286D01*
X160234690Y-100402571D01*
X160264929Y-100475143D01*
X160264929Y-100656571D01*
X160234690Y-100729143D01*
X160204452Y-100765429D01*
X160143976Y-100801714D01*
X159962548Y-100801714D01*
X159902071Y-100765429D01*
X159871833Y-100729143D01*
X160422167Y-107714143D02*
X160391929Y-107750429D01*
X160301214Y-107786714D01*
X160240738Y-107786714D01*
X160150024Y-107750429D01*
X160089548Y-107677857D01*
X160059309Y-107605286D01*
X160029071Y-107460143D01*
X160029071Y-107351286D01*
X160059309Y-107206143D01*
X160089548Y-107133571D01*
X160150024Y-107061000D01*
X160240738Y-107024714D01*
X160301214Y-107024714D01*
X160391929Y-107061000D01*
X160422167Y-107097286D01*
X160966452Y-107278714D02*
X160966452Y-107786714D01*
X160815262Y-106988429D02*
X160664071Y-107532714D01*
X161057167Y-107532714D01*
X162980309Y-106516714D02*
X162980309Y-105754714D01*
X163131500Y-105754714D01*
X163222214Y-105791000D01*
X163282690Y-105863571D01*
X163312929Y-105936143D01*
X163343167Y-106081286D01*
X163343167Y-106190143D01*
X163312929Y-106335286D01*
X163282690Y-106407857D01*
X163222214Y-106480429D01*
X163131500Y-106516714D01*
X162980309Y-106516714D01*
X163947929Y-106516714D02*
X163585071Y-106516714D01*
X163766500Y-106516714D02*
X163766500Y-105754714D01*
X163706024Y-105863571D01*
X163645548Y-105936143D01*
X163585071Y-105972429D01*
X156935714Y-104251881D02*
X156173714Y-104251881D01*
X156863143Y-103586642D02*
X156899429Y-103616880D01*
X156935714Y-103707595D01*
X156935714Y-103768071D01*
X156899429Y-103858785D01*
X156826857Y-103919261D01*
X156754286Y-103949500D01*
X156609143Y-103979738D01*
X156500286Y-103979738D01*
X156355143Y-103949500D01*
X156282571Y-103919261D01*
X156210000Y-103858785D01*
X156173714Y-103768071D01*
X156173714Y-103707595D01*
X156210000Y-103616880D01*
X156246286Y-103586642D01*
X156935714Y-102981880D02*
X156935714Y-103344738D01*
X156935714Y-103163309D02*
X156173714Y-103163309D01*
X156282571Y-103223785D01*
X156355143Y-103284261D01*
X156391429Y-103344738D01*
X167171309Y-97372714D02*
X167171309Y-96610714D01*
X167534167Y-97372714D02*
X167262024Y-96937286D01*
X167534167Y-96610714D02*
X167171309Y-97046143D01*
X168138929Y-97372714D02*
X167776071Y-97372714D01*
X167957500Y-97372714D02*
X167957500Y-96610714D01*
X167897024Y-96719571D01*
X167836548Y-96792143D01*
X167776071Y-96828429D01*
X157011309Y-96737714D02*
X157011309Y-95975714D01*
X157253214Y-95975714D01*
X157313690Y-96012000D01*
X157343929Y-96048286D01*
X157374167Y-96120857D01*
X157374167Y-96229714D01*
X157343929Y-96302286D01*
X157313690Y-96338571D01*
X157253214Y-96374857D01*
X157011309Y-96374857D01*
X157978929Y-96737714D02*
X157616071Y-96737714D01*
X157797500Y-96737714D02*
X157797500Y-95975714D01*
X157737024Y-96084571D01*
X157676548Y-96157143D01*
X157616071Y-96193429D01*
X147867309Y-97626714D02*
X147867309Y-96864714D01*
X148109214Y-96864714D01*
X148169690Y-96901000D01*
X148199929Y-96937286D01*
X148230167Y-97009857D01*
X148230167Y-97118714D01*
X148199929Y-97191286D01*
X148169690Y-97227571D01*
X148109214Y-97263857D01*
X147867309Y-97263857D01*
X148472071Y-96937286D02*
X148502309Y-96901000D01*
X148562786Y-96864714D01*
X148713976Y-96864714D01*
X148774452Y-96901000D01*
X148804690Y-96937286D01*
X148834929Y-97009857D01*
X148834929Y-97082429D01*
X148804690Y-97191286D01*
X148441833Y-97626714D01*
X148834929Y-97626714D01*
X151577524Y-98969286D02*
X151517048Y-98933000D01*
X151456571Y-98860429D01*
X151365857Y-98751571D01*
X151305381Y-98715286D01*
X151244905Y-98715286D01*
X151275143Y-98896714D02*
X151214667Y-98860429D01*
X151154190Y-98787857D01*
X151123952Y-98642714D01*
X151123952Y-98388714D01*
X151154190Y-98243571D01*
X151214667Y-98171000D01*
X151275143Y-98134714D01*
X151396095Y-98134714D01*
X151456571Y-98171000D01*
X151517048Y-98243571D01*
X151547286Y-98388714D01*
X151547286Y-98642714D01*
X151517048Y-98787857D01*
X151456571Y-98860429D01*
X151396095Y-98896714D01*
X151275143Y-98896714D01*
X152152048Y-98896714D02*
X151789190Y-98896714D01*
X151970619Y-98896714D02*
X151970619Y-98134714D01*
X151910143Y-98243571D01*
X151849667Y-98316143D01*
X151789190Y-98352429D01*
X168550167Y-107659714D02*
X168338500Y-107296857D01*
X168187309Y-107659714D02*
X168187309Y-106897714D01*
X168429214Y-106897714D01*
X168489690Y-106934000D01*
X168519929Y-106970286D01*
X168550167Y-107042857D01*
X168550167Y-107151714D01*
X168519929Y-107224286D01*
X168489690Y-107260571D01*
X168429214Y-107296857D01*
X168187309Y-107296857D01*
X169154929Y-107659714D02*
X168792071Y-107659714D01*
X168973500Y-107659714D02*
X168973500Y-106897714D01*
X168913024Y-107006571D01*
X168852548Y-107079143D01*
X168792071Y-107115429D01*
X155469167Y-98007714D02*
X155257500Y-97644857D01*
X155106309Y-98007714D02*
X155106309Y-97245714D01*
X155348214Y-97245714D01*
X155408690Y-97282000D01*
X155438929Y-97318286D01*
X155469167Y-97390857D01*
X155469167Y-97499714D01*
X155438929Y-97572286D01*
X155408690Y-97608571D01*
X155348214Y-97644857D01*
X155106309Y-97644857D01*
X155711071Y-97318286D02*
X155741309Y-97282000D01*
X155801786Y-97245714D01*
X155952976Y-97245714D01*
X156013452Y-97282000D01*
X156043690Y-97318286D01*
X156073929Y-97390857D01*
X156073929Y-97463429D01*
X156043690Y-97572286D01*
X155680833Y-98007714D01*
X156073929Y-98007714D01*
X160422167Y-105627714D02*
X160210500Y-105264857D01*
X160059309Y-105627714D02*
X160059309Y-104865714D01*
X160301214Y-104865714D01*
X160361690Y-104902000D01*
X160391929Y-104938286D01*
X160422167Y-105010857D01*
X160422167Y-105119714D01*
X160391929Y-105192286D01*
X160361690Y-105228571D01*
X160301214Y-105264857D01*
X160059309Y-105264857D01*
X160633833Y-104865714D02*
X161026929Y-104865714D01*
X160815262Y-105156000D01*
X160905976Y-105156000D01*
X160966452Y-105192286D01*
X160996690Y-105228571D01*
X161026929Y-105301143D01*
X161026929Y-105482571D01*
X160996690Y-105555143D01*
X160966452Y-105591429D01*
X160905976Y-105627714D01*
X160724548Y-105627714D01*
X160664071Y-105591429D01*
X160633833Y-105555143D01*
X153310167Y-105119714D02*
X153098500Y-104756857D01*
X152947309Y-105119714D02*
X152947309Y-104357714D01*
X153189214Y-104357714D01*
X153249690Y-104394000D01*
X153279929Y-104430286D01*
X153310167Y-104502857D01*
X153310167Y-104611714D01*
X153279929Y-104684286D01*
X153249690Y-104720571D01*
X153189214Y-104756857D01*
X152947309Y-104756857D01*
X153854452Y-104611714D02*
X153854452Y-105119714D01*
X153703262Y-104321429D02*
X153552071Y-104865714D01*
X153945167Y-104865714D01*
X156866167Y-107659714D02*
X156654500Y-107296857D01*
X156503309Y-107659714D02*
X156503309Y-106897714D01*
X156745214Y-106897714D01*
X156805690Y-106934000D01*
X156835929Y-106970286D01*
X156866167Y-107042857D01*
X156866167Y-107151714D01*
X156835929Y-107224286D01*
X156805690Y-107260571D01*
X156745214Y-107296857D01*
X156503309Y-107296857D01*
X157440690Y-106897714D02*
X157138309Y-106897714D01*
X157108071Y-107260571D01*
X157138309Y-107224286D01*
X157198786Y-107188000D01*
X157349976Y-107188000D01*
X157410452Y-107224286D01*
X157440690Y-107260571D01*
X157470929Y-107333143D01*
X157470929Y-107514571D01*
X157440690Y-107587143D01*
X157410452Y-107623429D01*
X157349976Y-107659714D01*
X157198786Y-107659714D01*
X157138309Y-107623429D01*
X157108071Y-107587143D01*
X146452167Y-108167714D02*
X146240500Y-107804857D01*
X146089309Y-108167714D02*
X146089309Y-107405714D01*
X146331214Y-107405714D01*
X146391690Y-107442000D01*
X146421929Y-107478286D01*
X146452167Y-107550857D01*
X146452167Y-107659714D01*
X146421929Y-107732286D01*
X146391690Y-107768571D01*
X146331214Y-107804857D01*
X146089309Y-107804857D01*
X146996452Y-107405714D02*
X146875500Y-107405714D01*
X146815024Y-107442000D01*
X146784786Y-107478286D01*
X146724309Y-107587143D01*
X146694071Y-107732286D01*
X146694071Y-108022571D01*
X146724309Y-108095143D01*
X146754548Y-108131429D01*
X146815024Y-108167714D01*
X146935976Y-108167714D01*
X146996452Y-108131429D01*
X147026690Y-108095143D01*
X147056929Y-108022571D01*
X147056929Y-107841143D01*
X147026690Y-107768571D01*
X146996452Y-107732286D01*
X146935976Y-107696000D01*
X146815024Y-107696000D01*
X146754548Y-107732286D01*
X146724309Y-107768571D01*
X146694071Y-107841143D01*
X156358167Y-102071714D02*
X156146500Y-101708857D01*
X155995309Y-102071714D02*
X155995309Y-101309714D01*
X156237214Y-101309714D01*
X156297690Y-101346000D01*
X156327929Y-101382286D01*
X156358167Y-101454857D01*
X156358167Y-101563714D01*
X156327929Y-101636286D01*
X156297690Y-101672571D01*
X156237214Y-101708857D01*
X155995309Y-101708857D01*
X156569833Y-101309714D02*
X156993167Y-101309714D01*
X156721024Y-102071714D01*
X166076690Y-105627714D02*
X166439547Y-105627714D01*
X166258119Y-106389714D02*
X166258119Y-105627714D01*
X166651214Y-106389714D02*
X166651214Y-105627714D01*
X166893119Y-105627714D01*
X166953595Y-105664000D01*
X166983834Y-105700286D01*
X167014072Y-105772857D01*
X167014072Y-105881714D01*
X166983834Y-105954286D01*
X166953595Y-105990571D01*
X166893119Y-106026857D01*
X166651214Y-106026857D01*
X167618834Y-106389714D02*
X167255976Y-106389714D01*
X167437405Y-106389714D02*
X167437405Y-105627714D01*
X167376929Y-105736571D01*
X167316453Y-105809143D01*
X167255976Y-105845429D01*
%LPC*%
D17*
X146050000Y-103759000D03*
X146050000Y-106807000D03*
X164592000Y-100203000D03*
X164592000Y-97155000D03*
D18*
X162433000Y-100457000D03*
X160909000Y-100457000D03*
X157861000Y-107315000D03*
X159385000Y-107315000D03*
D19*
X164244020Y-107315000D03*
X162145980Y-107315000D03*
D20*
X157982920Y-102674420D03*
X157982920Y-103319580D03*
X157982920Y-103972360D03*
X157982920Y-102021640D03*
X163581080Y-103972360D03*
X163581080Y-103319580D03*
X163581080Y-102674420D03*
X163581080Y-102021640D03*
D21*
X167640000Y-104140000D03*
D22*
X167640000Y-101600000D03*
X167640000Y-99060000D03*
D23*
X159131000Y-98552000D03*
X159131000Y-97282000D03*
X160401000Y-98552000D03*
X160401000Y-97282000D03*
X161671000Y-98552000D03*
X161671000Y-97282000D03*
D24*
X146050000Y-97790000D03*
D25*
X146050000Y-100330000D03*
D26*
X154686000Y-103505000D03*
X154686000Y-102235000D03*
X154686000Y-100965000D03*
X154686000Y-99695000D03*
X149098000Y-99695000D03*
X149098000Y-100965000D03*
X149098000Y-102235000D03*
X149098000Y-103505000D03*
D18*
X167386000Y-107315000D03*
X165862000Y-107315000D03*
D27*
X156972000Y-98679000D03*
X156972000Y-97155000D03*
D18*
X157861000Y-105537000D03*
X159385000Y-105537000D03*
X154559000Y-105410000D03*
X156083000Y-105410000D03*
X154559000Y-107188000D03*
X156083000Y-107188000D03*
D28*
X149479000Y-106680000D03*
X152527000Y-106680000D03*
D18*
X158369000Y-100457000D03*
X156845000Y-100457000D03*
D29*
X165354000Y-105410000D03*
M02*
