M48
;DRILL file {kicad (2014-08-05 BZR 5054)-product} date 06/11/2014 16:12:02
;FORMAT={-:-/ absolute / inch / decimal}
FMAT,2
INCH,TZ
T1C0.013
T2C0.020
T3C0.028
T4C0.040
%
G90
G05
M72
T1
X5.825Y-4.18
X5.83Y-4.145
X5.87Y-3.885
X5.945Y-4.14
X5.945Y-4.18
X5.95Y-3.805
X6.02Y-3.925
X6.125Y-3.88
X6.285Y-4.095
X6.315Y-4.035
X6.325Y-4.17
X6.335Y-3.995
X6.365Y-4.165
X6.385Y-4.085
X6.48Y-3.88
X6.63Y-3.81
T2
X5.715Y-4.02
X5.96Y-4.085
X6.015Y-3.975
X6.51Y-4.15
T3
X6.265Y-3.83
X6.265Y-3.88
X6.315Y-3.83
X6.315Y-3.88
X6.365Y-3.83
X6.365Y-3.88
T4
X5.75Y-3.85
X5.75Y-3.95
X6.6Y-3.9
X6.6Y-4.
X6.6Y-4.1
T0
M30
