%FSLAX46Y46*%
G04 Gerber Fmt 4.6, Leading zero omitted, Abs format (unit mm)*
G04 Created by KiCad (PCBNEW (2014-08-05 BZR 5054)-product) date 06/11/2014 16:14:12*
%MOMM*%
G01*
G04 APERTURE LIST*
%ADD10C,0.100000*%
%ADD11R,2.032000X1.727200*%
%ADD12O,2.032000X1.727200*%
%ADD13C,1.066800*%
%ADD14R,2.032000X2.032000*%
%ADD15O,2.032000X2.032000*%
%ADD16C,0.889000*%
%ADD17C,0.762000*%
%ADD18C,1.143000*%
%ADD19C,0.381000*%
%ADD20C,0.635000*%
%ADD21C,0.254000*%
%ADD22C,0.889000*%
G04 APERTURE END LIST*
D10*
D11*
X167640000Y-104140000D03*
D12*
X167640000Y-101600000D03*
X167640000Y-99060000D03*
D13*
X159131000Y-98552000D03*
X159131000Y-97282000D03*
X160401000Y-98552000D03*
X160401000Y-97282000D03*
X161671000Y-98552000D03*
X161671000Y-97282000D03*
D14*
X146050000Y-97790000D03*
D15*
X146050000Y-100330000D03*
D16*
X165354000Y-105410000D03*
X145161000Y-102108000D03*
D17*
X151130000Y-96647000D03*
X159639000Y-104013000D03*
X161671000Y-105791000D03*
X160655000Y-105918000D03*
X151003000Y-106172000D03*
X151003000Y-105156000D03*
X147955000Y-106172000D03*
X148082000Y-105283000D03*
X160909000Y-101473000D03*
X164592000Y-98552000D03*
X155575000Y-98552000D03*
X168402000Y-96774000D03*
X162179000Y-103759000D03*
X160401000Y-102489000D03*
D16*
X151384000Y-103759000D03*
X152781000Y-100965000D03*
D17*
X149098000Y-98679000D03*
X152908000Y-99695000D03*
D18*
X145669000Y-102616000D02*
X145161000Y-102108000D01*
X145669000Y-106426000D02*
X145669000Y-102616000D01*
X146685000Y-107442000D02*
X145669000Y-106426000D01*
X161925000Y-107442000D02*
X146685000Y-107442000D01*
X163322000Y-106045000D02*
X161925000Y-107442000D01*
X163322000Y-104521000D02*
X163322000Y-106045000D01*
X166243000Y-101600000D02*
X163322000Y-104521000D01*
X167640000Y-101600000D02*
X166243000Y-101600000D01*
D19*
X151130000Y-96647000D02*
X148971000Y-96647000D01*
X148971000Y-96647000D02*
X148082000Y-97536000D01*
X148082000Y-97536000D02*
X148082000Y-101346000D01*
X148082000Y-101346000D02*
X147320000Y-102108000D01*
X147320000Y-102108000D02*
X145161000Y-102108000D01*
D20*
X151003000Y-106172000D02*
X151003000Y-105156000D01*
X147955000Y-106172000D02*
X148082000Y-106045000D01*
X148082000Y-106045000D02*
X148082000Y-105283000D01*
D21*
X156591000Y-98552000D02*
X155575000Y-98552000D01*
X157607000Y-99568000D02*
X156591000Y-98552000D01*
X160909000Y-99568000D02*
X157607000Y-99568000D01*
X161671000Y-98806000D02*
X160909000Y-99568000D01*
X161671000Y-98552000D02*
X161671000Y-98806000D01*
X168402000Y-96774000D02*
X168021000Y-96393000D01*
X168021000Y-96393000D02*
X161290000Y-96393000D01*
X161290000Y-96393000D02*
X160401000Y-97282000D01*
D19*
X161163000Y-103251000D02*
X160401000Y-102489000D01*
X161163000Y-103251000D02*
X161417000Y-103505000D01*
X161671000Y-103759000D02*
X162179000Y-103759000D01*
X161417000Y-103505000D02*
X161671000Y-103759000D01*
D22*
X152781000Y-101854000D02*
X152781000Y-100965000D01*
X152781000Y-102362000D02*
X151384000Y-103759000D01*
X152781000Y-101854000D02*
X152781000Y-102362000D01*
D19*
X149098000Y-98679000D02*
X150114000Y-99695000D01*
X150114000Y-99695000D02*
X152908000Y-99695000D01*
D21*
G36*
X168783000Y-100753231D02*
X168736750Y-100684014D01*
X168316492Y-100403206D01*
X167820764Y-100304600D01*
X167459236Y-100304600D01*
X166963508Y-100403206D01*
X166673924Y-100596700D01*
X166243000Y-100596700D01*
X165859054Y-100673072D01*
X165533560Y-100890560D01*
X162943448Y-103480671D01*
X162868460Y-103299187D01*
X162640016Y-103070343D01*
X162341385Y-102946341D01*
X162018033Y-102946059D01*
X161819964Y-103027899D01*
X161603033Y-102810968D01*
X161603033Y-102810967D01*
X161603029Y-102810964D01*
X161213859Y-102421793D01*
X161213941Y-102328033D01*
X161090460Y-102029187D01*
X160862016Y-101800343D01*
X160563385Y-101676341D01*
X160240033Y-101676059D01*
X159941187Y-101799540D01*
X159712343Y-102027984D01*
X159588341Y-102326615D01*
X159588059Y-102649967D01*
X159711540Y-102948813D01*
X159939984Y-103177657D01*
X160238615Y-103301659D01*
X160333676Y-103301741D01*
X160722964Y-103691029D01*
X160722967Y-103691033D01*
X160722968Y-103691033D01*
X160976964Y-103945029D01*
X160976967Y-103945033D01*
X161230964Y-104199029D01*
X161230967Y-104199033D01*
X161432856Y-104333930D01*
X161646971Y-104376520D01*
X161717984Y-104447657D01*
X162016615Y-104571659D01*
X162318700Y-104571922D01*
X162318700Y-105629420D01*
X161509420Y-106438700D01*
X147100580Y-106438700D01*
X146672300Y-106010420D01*
X146672300Y-102730300D01*
X147319994Y-102730300D01*
X147320000Y-102730301D01*
X147320000Y-102730300D01*
X147558144Y-102682930D01*
X147760033Y-102548033D01*
X148522029Y-101786035D01*
X148522033Y-101786033D01*
X148522033Y-101786032D01*
X148656930Y-101584144D01*
X148656930Y-101584143D01*
X148664789Y-101544632D01*
X148704300Y-101346000D01*
X148704301Y-101346000D01*
X148704300Y-101345994D01*
X148704300Y-99395608D01*
X148935615Y-99491659D01*
X149030675Y-99491741D01*
X149673967Y-100135033D01*
X149875856Y-100269930D01*
X150114000Y-100317301D01*
X150114000Y-100317300D01*
X150114005Y-100317300D01*
X152189473Y-100317300D01*
X152161362Y-100345361D01*
X152161362Y-100345362D01*
X152161361Y-100345362D01*
X152038542Y-100467968D01*
X151904852Y-100789928D01*
X151904548Y-101138542D01*
X151904700Y-101138909D01*
X151904700Y-101854000D01*
X151904700Y-101999024D01*
X150764362Y-103139362D01*
X150764361Y-103139362D01*
X150641542Y-103261968D01*
X150507852Y-103583928D01*
X150507548Y-103932542D01*
X150574403Y-104094345D01*
X150574404Y-104094346D01*
X150640676Y-104254736D01*
X150764361Y-104378637D01*
X150764362Y-104378638D01*
X150886968Y-104501458D01*
X151048654Y-104568596D01*
X151208928Y-104635148D01*
X151384000Y-104635300D01*
X151557542Y-104635452D01*
X151719345Y-104568596D01*
X151719346Y-104568596D01*
X151719346Y-104568595D01*
X151879736Y-104502324D01*
X152003637Y-104378638D01*
X152003638Y-104378638D01*
X152003670Y-104378605D01*
X152126458Y-104256032D01*
X152126610Y-104255665D01*
X153400634Y-102981640D01*
X153400637Y-102981638D01*
X153400638Y-102981638D01*
X153590595Y-102697346D01*
X153590596Y-102697345D01*
X153657300Y-102362000D01*
X153657300Y-101854000D01*
X153657300Y-100965765D01*
X153657300Y-100965000D01*
X153657452Y-100791458D01*
X153590596Y-100629655D01*
X153524324Y-100469264D01*
X153403803Y-100348532D01*
X153596657Y-100156016D01*
X153720659Y-99857385D01*
X153720941Y-99534033D01*
X153597460Y-99235187D01*
X153369016Y-99006343D01*
X153070385Y-98882341D01*
X152747033Y-98882059D01*
X152448187Y-99005540D01*
X152380909Y-99072700D01*
X150371766Y-99072700D01*
X149910859Y-98611793D01*
X149910941Y-98518033D01*
X149787460Y-98219187D01*
X149559016Y-97990343D01*
X149260385Y-97866341D01*
X148937033Y-97866059D01*
X148704300Y-97962222D01*
X148704300Y-97793765D01*
X149228765Y-97269300D01*
X150602742Y-97269300D01*
X150668984Y-97335657D01*
X150967615Y-97459659D01*
X151290967Y-97459941D01*
X151589813Y-97336460D01*
X151818657Y-97108016D01*
X151942659Y-96809385D01*
X151942800Y-96647000D01*
X158400917Y-96647000D01*
X158313221Y-96734544D01*
X158165968Y-97089168D01*
X158165633Y-97473148D01*
X158312266Y-97828027D01*
X158401001Y-97916917D01*
X158313221Y-98004544D01*
X158165968Y-98359168D01*
X158165633Y-98743148D01*
X158275563Y-99009200D01*
X157838462Y-99009200D01*
X156986131Y-98156869D01*
X156804844Y-98035736D01*
X156591000Y-97993200D01*
X156165646Y-97993200D01*
X156036016Y-97863343D01*
X155737385Y-97739341D01*
X155414033Y-97739059D01*
X155115187Y-97862540D01*
X154886343Y-98090984D01*
X154762341Y-98389615D01*
X154762059Y-98712967D01*
X154885540Y-99011813D01*
X155113984Y-99240657D01*
X155412615Y-99364659D01*
X155735967Y-99364941D01*
X156034813Y-99241460D01*
X156165701Y-99110800D01*
X156359538Y-99110800D01*
X157211869Y-99963131D01*
X157393156Y-100084264D01*
X157393157Y-100084264D01*
X157607000Y-100126800D01*
X160909000Y-100126800D01*
X161122843Y-100084264D01*
X161122844Y-100084264D01*
X161304131Y-99963131D01*
X161749992Y-99517269D01*
X161862148Y-99517367D01*
X162217027Y-99370734D01*
X162488779Y-99099456D01*
X162636032Y-98744832D01*
X162636367Y-98360852D01*
X162489734Y-98005973D01*
X162218456Y-97734221D01*
X161863832Y-97586968D01*
X161479852Y-97586633D01*
X161286420Y-97666557D01*
X161366032Y-97474832D01*
X161366352Y-97106909D01*
X161521462Y-96951800D01*
X167596014Y-96951800D01*
X167712540Y-97233813D01*
X167940984Y-97462657D01*
X168239615Y-97586659D01*
X168562967Y-97586941D01*
X168783000Y-97496024D01*
X168783000Y-100753231D01*
X168783000Y-100753231D01*
G37*
X168783000Y-100753231D02*
X168736750Y-100684014D01*
X168316492Y-100403206D01*
X167820764Y-100304600D01*
X167459236Y-100304600D01*
X166963508Y-100403206D01*
X166673924Y-100596700D01*
X166243000Y-100596700D01*
X165859054Y-100673072D01*
X165533560Y-100890560D01*
X162943448Y-103480671D01*
X162868460Y-103299187D01*
X162640016Y-103070343D01*
X162341385Y-102946341D01*
X162018033Y-102946059D01*
X161819964Y-103027899D01*
X161603033Y-102810968D01*
X161603033Y-102810967D01*
X161603029Y-102810964D01*
X161213859Y-102421793D01*
X161213941Y-102328033D01*
X161090460Y-102029187D01*
X160862016Y-101800343D01*
X160563385Y-101676341D01*
X160240033Y-101676059D01*
X159941187Y-101799540D01*
X159712343Y-102027984D01*
X159588341Y-102326615D01*
X159588059Y-102649967D01*
X159711540Y-102948813D01*
X159939984Y-103177657D01*
X160238615Y-103301659D01*
X160333676Y-103301741D01*
X160722964Y-103691029D01*
X160722967Y-103691033D01*
X160722968Y-103691033D01*
X160976964Y-103945029D01*
X160976967Y-103945033D01*
X161230964Y-104199029D01*
X161230967Y-104199033D01*
X161432856Y-104333930D01*
X161646971Y-104376520D01*
X161717984Y-104447657D01*
X162016615Y-104571659D01*
X162318700Y-104571922D01*
X162318700Y-105629420D01*
X161509420Y-106438700D01*
X147100580Y-106438700D01*
X146672300Y-106010420D01*
X146672300Y-102730300D01*
X147319994Y-102730300D01*
X147320000Y-102730301D01*
X147320000Y-102730300D01*
X147558144Y-102682930D01*
X147760033Y-102548033D01*
X148522029Y-101786035D01*
X148522033Y-101786033D01*
X148522033Y-101786032D01*
X148656930Y-101584144D01*
X148656930Y-101584143D01*
X148664789Y-101544632D01*
X148704300Y-101346000D01*
X148704301Y-101346000D01*
X148704300Y-101345994D01*
X148704300Y-99395608D01*
X148935615Y-99491659D01*
X149030675Y-99491741D01*
X149673967Y-100135033D01*
X149875856Y-100269930D01*
X150114000Y-100317301D01*
X150114000Y-100317300D01*
X150114005Y-100317300D01*
X152189473Y-100317300D01*
X152161362Y-100345361D01*
X152161362Y-100345362D01*
X152161361Y-100345362D01*
X152038542Y-100467968D01*
X151904852Y-100789928D01*
X151904548Y-101138542D01*
X151904700Y-101138909D01*
X151904700Y-101854000D01*
X151904700Y-101999024D01*
X150764362Y-103139362D01*
X150764361Y-103139362D01*
X150641542Y-103261968D01*
X150507852Y-103583928D01*
X150507548Y-103932542D01*
X150574403Y-104094345D01*
X150574404Y-104094346D01*
X150640676Y-104254736D01*
X150764361Y-104378637D01*
X150764362Y-104378638D01*
X150886968Y-104501458D01*
X151048654Y-104568596D01*
X151208928Y-104635148D01*
X151384000Y-104635300D01*
X151557542Y-104635452D01*
X151719345Y-104568596D01*
X151719346Y-104568596D01*
X151719346Y-104568595D01*
X151879736Y-104502324D01*
X152003637Y-104378638D01*
X152003638Y-104378638D01*
X152003670Y-104378605D01*
X152126458Y-104256032D01*
X152126610Y-104255665D01*
X153400634Y-102981640D01*
X153400637Y-102981638D01*
X153400638Y-102981638D01*
X153590595Y-102697346D01*
X153590596Y-102697345D01*
X153657300Y-102362000D01*
X153657300Y-101854000D01*
X153657300Y-100965765D01*
X153657300Y-100965000D01*
X153657452Y-100791458D01*
X153590596Y-100629655D01*
X153524324Y-100469264D01*
X153403803Y-100348532D01*
X153596657Y-100156016D01*
X153720659Y-99857385D01*
X153720941Y-99534033D01*
X153597460Y-99235187D01*
X153369016Y-99006343D01*
X153070385Y-98882341D01*
X152747033Y-98882059D01*
X152448187Y-99005540D01*
X152380909Y-99072700D01*
X150371766Y-99072700D01*
X149910859Y-98611793D01*
X149910941Y-98518033D01*
X149787460Y-98219187D01*
X149559016Y-97990343D01*
X149260385Y-97866341D01*
X148937033Y-97866059D01*
X148704300Y-97962222D01*
X148704300Y-97793765D01*
X149228765Y-97269300D01*
X150602742Y-97269300D01*
X150668984Y-97335657D01*
X150967615Y-97459659D01*
X151290967Y-97459941D01*
X151589813Y-97336460D01*
X151818657Y-97108016D01*
X151942659Y-96809385D01*
X151942800Y-96647000D01*
X158400917Y-96647000D01*
X158313221Y-96734544D01*
X158165968Y-97089168D01*
X158165633Y-97473148D01*
X158312266Y-97828027D01*
X158401001Y-97916917D01*
X158313221Y-98004544D01*
X158165968Y-98359168D01*
X158165633Y-98743148D01*
X158275563Y-99009200D01*
X157838462Y-99009200D01*
X156986131Y-98156869D01*
X156804844Y-98035736D01*
X156591000Y-97993200D01*
X156165646Y-97993200D01*
X156036016Y-97863343D01*
X155737385Y-97739341D01*
X155414033Y-97739059D01*
X155115187Y-97862540D01*
X154886343Y-98090984D01*
X154762341Y-98389615D01*
X154762059Y-98712967D01*
X154885540Y-99011813D01*
X155113984Y-99240657D01*
X155412615Y-99364659D01*
X155735967Y-99364941D01*
X156034813Y-99241460D01*
X156165701Y-99110800D01*
X156359538Y-99110800D01*
X157211869Y-99963131D01*
X157393156Y-100084264D01*
X157393157Y-100084264D01*
X157607000Y-100126800D01*
X160909000Y-100126800D01*
X161122843Y-100084264D01*
X161122844Y-100084264D01*
X161304131Y-99963131D01*
X161749992Y-99517269D01*
X161862148Y-99517367D01*
X162217027Y-99370734D01*
X162488779Y-99099456D01*
X162636032Y-98744832D01*
X162636367Y-98360852D01*
X162489734Y-98005973D01*
X162218456Y-97734221D01*
X161863832Y-97586968D01*
X161479852Y-97586633D01*
X161286420Y-97666557D01*
X161366032Y-97474832D01*
X161366352Y-97106909D01*
X161521462Y-96951800D01*
X167596014Y-96951800D01*
X167712540Y-97233813D01*
X167940984Y-97462657D01*
X168239615Y-97586659D01*
X168562967Y-97586941D01*
X168783000Y-97496024D01*
X168783000Y-100753231D01*
M02*
